<?xml version="1.0" standalone="no"?>
<!DOCTYPE svg PUBLIC "-//W3C//DTD SVG 20010904//EN"
 "http://www.w3.org/TR/2001/REC-SVG-20010904/DTD/svg10.dtd">
<svg version="1.0" xmlns="http://www.w3.org/2000/svg"
 width="700.000000pt" height="700.000000pt" viewBox="0 0 700.000000 700.000000"
 preserveAspectRatio="xMidYMid meet">
<metadata>
Created by potrace 1.11, written by Peter Selinger 2001-2013
</metadata>
<g transform="translate(0.000000,700.000000) scale(0.100000,-0.100000)"
fill="#000000" stroke="none">
<path d="M3980 3470 l0 -1830 220 0 220 0 0 788 c0 861 2 903 58 1059 39 112
85 184 168 268 131 132 297 195 514 195 197 0 315 -43 415 -152 96 -103 148
-247 165 -458 5 -63 10 -472 10 -908 l0 -792 218 2 217 3 0 865 c0 661 -3 889
-13 965 -60 454 -254 720 -596 819 -304 88 -647 38 -881 -129 -67 -48 -183
-165 -239 -239 l-36 -49 0 712 0 711 -220 0 -220 0 0 -1830z"/>
<path d="M1870 4330 c-197 -19 -423 -70 -615 -137 l-110 -39 -3 -202 c-1 -111
0 -202 3 -202 3 0 36 15 73 34 249 125 519 182 817 173 146 -4 182 -8 260 -31
123 -37 198 -80 276 -156 102 -100 150 -210 165 -379 l7 -81 -319 0 c-481 -1
-676 -19 -874 -82 -384 -122 -576 -370 -596 -768 -16 -311 102 -579 321 -730
66 -45 199 -105 275 -124 265 -64 596 -32 820 79 124 62 254 178 335 298 l35
52 0 -198 0 -197 221 0 220 0 -4 853 c-4 925 -5 942 -63 1145 -32 112 -111
270 -174 349 -136 169 -348 283 -610 327 -116 19 -345 28 -460 16z m870 -1434
c0 -98 -19 -257 -40 -341 -45 -175 -102 -277 -225 -401 -151 -152 -287 -206
-520 -207 -195 -1 -312 36 -418 133 -122 112 -173 300 -133 491 47 219 206
328 536 368 136 17 149 18 483 19 l317 2 0 -64z"/>
</g>
</svg>
